# xmcd
#
# Track frame offsets: 
#        150
#        21359
#        39210
#        54748
#        71937
#        89147
#        103550
#        126054
#        140659
#        160154
#
# Disc length: 2346 seconds
#
# Revision: 0
# Processed by: cddbd v1.5.2PL0 Copyright (c) Steve Scherf et al.
# Submitted via: ExactAudioCopy v1.0b4
#
DISCID=8f09280a
DTITLE=Erja Lyytinen and Davide Floreno - It's A Blessing
DYEAR=2005
DGENRE=Blues, Blues Rock
TTITLE0=Welcome Song
TTITLE1=Nobody Knows You When You're Down And Out
TTITLE2=Frustrated Woman Blues
TTITLE3=Whiskey Days
TTITLE4=Hurry Make Love
TTITLE5=Habanero
TTITLE6=Love Me
TTITLE7=Your Brown Eyes
TTITLE8=Why
TTITLE9=It's A Blessing
EXTD=
EXTT0=
EXTT1=
EXTT2=
EXTT3=
EXTT4=
EXTT5=
EXTT6=
EXTT7=
EXTT8=
EXTT9=
PLAYORDER=
